# xmcd CD database file
#
# Track frame offsets:
#	150
#	70035
#	115825
#	122662
#	137332
#	145142
#	157355
#	174162
#	183407
#	197125
#	213360
#	222525
#	230615
#
# Disc length: 3267 seconds
#
# Revision: 0
# Processed by: cddbd v1.5.1PL0 Copyright (c) Steve Scherf et al.
# Submitted via: CDex 1.51
#
DISCID=c20cc10d
DTITLE=Dynamic Evolving Impulse - IDE3 - Passage to Other States
DYEAR=1996
DGENRE=New Age
TTITLE0=They Came
TTITLE1=Passage to the Other Shore
TTITLE2=Pioneers
TTITLE3=New Land
TTITLE4=Accomplished Mission
TTITLE5=Work Project
TTITLE6=Exchanges of the Heart
TTITLE7=New Realizations
TTITLE8=Prophylaxy
TTITLE9=Opening Out
TTITLE10=Elements
TTITLE11=Preparations
TTITLE12=Separations
EXTD=YEAR: 1996
EXTT0=
EXTT1=
EXTT2=
EXTT3=
EXTT4=
EXTT5=
EXTT6=
EXTT7=
EXTT8=
EXTT9=
EXTT10=
EXTT11=
EXTT12=
PLAYORDER=
